<mxfile host="app.diagrams.net" modified="2024-03-08T16:11:35.244Z" agent="Mozilla/5.0 (Macintosh; Intel Mac OS X 10_15_7) AppleWebKit/537.36 (KHTML, like Gecko) Chrome/122.0.0.0 Safari/537.36" version="24.0.2" etag="ds880Hqmc6T-oMN1w2eV" type="github">
  <diagram name="Page-1" id="dC7KNaYVVROXUXvE69UV">
    <mxGraphModel>
      <root>
        <mxCell id="0" />
        <mxCell id="1" parent="0" />
      </root>
    </mxGraphModel>
  </diagram>
</mxfile>
